0
SECTION
2
HEADER
9
$INSUNITS
70
4
9
$ACADVER
1
AC1014
9
$HANDSEED
5
FFFF
0
ENDSEC
0
SECTION
2
TABLES
0
TABLE
2
VPORT
5
8
100
AcDbSymbolTable
0
ENDTAB
0
TABLE
2
LTYPE
5
5
100
AcDbSymbolTable
0
LTYPE
5
14
100
AcDbSymbolTableRecord
100
AcDbLinetypeTableRecord
2
BYBLOCK
70
0
0
LTYPE
5
15
100
AcDbSymbolTableRecord
100
AcDbLinetypeTableRecord
2
BYLAYER
70
0
0
ENDTAB
0
TABLE
2
LAYER
5
2
100
AcDbSymbolTable
70
2
0
LAYER
5
50
100
AcDbSymbolTableRecord
100
AcDbLayerTableRecord
2
0
70
0
6
CONTINUOUS
0
ENDTAB
0
TABLE
2
STYLE
5
3
100
AcDbSymbolTable
70
1
0
STYLE
5
11
100
AcDbSymbolTableRecord
100
AcDbTextStyleTableRecord
2
STANDARD
70
0
0
ENDTAB
0
TABLE
2
VIEW
5
6
100
AcDbSymbolTable
70
0
0
ENDTAB
0
TABLE
2
UCS
5
7
100
AcDbSymbolTable
70
0
0
ENDTAB
0
TABLE
2
APPID
5
9
100
AcDbSymbolTable
70
2
0
APPID
5
12
100
AcDbSymbolTableRecord
100
AcDbRegAppTableRecord
2
ACAD
70
0
0
ENDTAB
0
TABLE
2
DIMSTYLE
5
A
100
AcDbSymbolTable
70
1
0
ENDTAB
0
TABLE
2
BLOCK_RECORD
5
1
100
AcDbSymbolTable
70
1
0
BLOCK_RECORD
5
1F
100
AcDbSymbolTableRecord
100
AcDbBlockTableRecord
2
*MODEL_SPACE
0
BLOCK_RECORD
5
1B
100
AcDbSymbolTableRecord
100
AcDbBlockTableRecord
2
*PAPER_SPACE
0
ENDTAB
0
ENDSEC
0
SECTION
2
BLOCKS
0
BLOCK
5
20
100
AcDbEntity
100
AcDbBlockBegin
2
*MODEL_SPACE
0
ENDBLK
5
21
100
AcDbEntity
100
AcDbBlockEnd
0
BLOCK
5
1C
100
AcDbEntity
100
AcDbBlockBegin
2
*PAPER_SPACE
0
ENDBLK
5
1D
100
AcDbEntity
100
AcDbBlockEnd
0
ENDSEC
0
SECTION
2
ENTITIES
0
LWPOLYLINE
5
100
100
AcDbEntity
8
0
100
AcDbPolyline
90
4
70
1
43
0.0
10
-27.361000000000022
20
80.599999999999994
42
-0.99999999999999989
10
-27.361000000000004
20
79.59999999999998
10
-71.361000000000004
20
79.600000000000009
42
-0.99999999999999989
10
-71.360999999999976
20
80.599999999999952
0
LWPOLYLINE
5
101
100
AcDbEntity
8
0
100
AcDbPolyline
90
4
70
1
43
0.0
10
-71.360999999999976
20
-3.400000000000003
10
-27.361000000000004
20
-3.4000000000000052
42
-0.99999999999999989
10
-27.361000000000004
20
-4.3999999999999515
10
-71.360999999999962
20
-4.4000000000000004
42
-0.99999999999999989
0
LWPOLYLINE
5
102
100
AcDbEntity
8
0
100
AcDbPolyline
90
56
70
1
43
0.0
10
-24.561
20
80.499999999999986
42
0.41421356237309764
10
-26.061000000000007
20
82.000000000000014
10
-72.661000000000001
20
82
42
0.4142135623730846
10
-74.161000000000016
20
80.499999999999972
10
-74.161000000000001
20
79.450000000000003
42
0.41421356237309853
10
-72.661000000000001
20
77.950000000000003
10
-51.360999999998342
20
77.949999999999989
42
-0.99999999999999989
10
-51.360999999998356
20
76.950000000000003
10
-191.52649999999994
20
76.949999999999946
42
-0.99999999999999989
10
-191.5265
20
77.949999999999989
10
-170.22649999999999
20
77.949999999999989
42
0.41421356237309159
10
-168.72649999999999
20
79.449999999999946
10
-168.72649999999999
20
80.499999999999972
42
0.41421356237308116
10
-170.22649999999996
20
82.000000000000014
10
-216.82650000000001
20
81.999999999999972
42
0.41421356237311241
10
-218.32650000000001
20
80.499999999999972
10
-218.32649999999995
20
79.449999999999974
42
0.41421356237312801
10
-216.82649999999995
20
77.949999999999946
10
-195.52650000000006
20
77.949999999999989
42
-0.99999999999999989
10
-195.5265
20
76.949999999999946
10
-240.73749999999995
20
76.94999999999996
42
0.4142135623730937
10
-242.73749999999995
20
74.949999999999903
10
-242.73749999999995
20
1.2499999999999736
42
0.41421356237310364
10
-240.73749999999995
20
-0.74999999999999778
10
-195.5265
20
-0.75000000000001155
42
-0.99999999999999989
10
-195.5265
20
-1.7500000000000013
10
-216.82650000000001
20
-1.7499999999999949
42
0.41421356237311302
10
-218.32650000000001
20
-3.2500000000000018
10
-218.32649999999995
20
-4.3000000000000105
42
0.41421356237309648
10
-216.82649999999995
20
-5.8000000000000203
10
-170.22649999999996
20
-5.7999999999999989
42
0.41421356237312323
10
-168.7264999999999
20
-4.3000000000000105
10
-168.72649999999996
20
-3.2500000000000018
42
0.41421356237312623
10
-170.22649999999996
20
-1.7499999999999916
10
-191.52650000000006
20
-1.7500000000000207
42
-0.99999999999999989
10
-191.52649999999997
20
-0.75000000000001199
10
-51.360999999999947
20
-0.75000000000000511
42
-0.99999999999999989
10
-51.360999999999962
20
-1.7500000000000016
10
-72.661000000000001
20
-1.7500000000000004
42
0.41421356237309331
10
-74.161000000000001
20
-3.250000000000004
10
-74.161000000000001
20
-4.2999999999999989
42
0.41421356237309809
10
-72.661000000000001
20
-5.7999999999999963
10
-26.061
20
-5.8000000000000043
42
0.41421356237309659
10
-24.560999999999989
20
-4.3000000000000016
10
-24.560999999999993
20
-3.2500000000000018
42
0.41421356237310186
10
-26.061
20
-1.7500000000000038
10
-47.360999999999947
20
-1.7500000000000024
42
-0.99999999999999989
10
-47.360999999999933
20
-0.75000000000000155
10
-2.1499999999999986
20
-0.74999999999999867
42
0.41421356237309503
10
-0.15000000000000013
20
1.25
10
-0.15000000000000957
20
74.950000000000017
42
0.41421356237309581
10
-2.1500000000000075
20
76.950000000000003
10
-47.360999999998363
20
76.950000000000017
42
-0.99999999999999989
10
-47.360999999998342
20
77.949999999999989
10
-26.060999999999996
20
77.949999999999989
42
0.41421356237310114
10
-24.560999999999996
20
79.450000000000003
0
LWPOLYLINE
5
103
100
AcDbEntity
8
0
100
AcDbPolyline
90
4
70
1
43
0.0
10
-215.5265
20
-4.3999999999990056
42
-0.99999999999999989
10
-215.5265
20
-3.3999999999990163
10
-171.52649999999997
20
-3.3999999999990163
42
-0.99999999999999989
10
-171.52649999999997
20
-4.3999999999989567
0
LWPOLYLINE
5
104
100
AcDbEntity
8
0
100
AcDbPolyline
90
4
70
1
43
0.0
10
-171.52649999999991
20
80.599999999999994
42
-0.99999999999999989
10
-171.52649999999997
20
79.59999999999998
10
-215.5265
20
79.599999999999994
42
-0.99999999999999989
10
-215.5265
20
80.599999999999937
0
LWPOLYLINE
5
105
100
AcDbEntity
8
0
100
AcDbPolyline
90
8
70
1
43
0.0
10
-112.06250000000004
20
54.125000000000014
42
0.41421356237310025
10
-112.56250000000006
20
54.625000000000021
10
-125.56250000000004
20
54.625
42
0.41421356237306384
10
-126.06250000000004
20
54.125000000000014
10
-126.06250000000004
20
41.125
42
0.41421356237307422
10
-125.56250000000004
20
40.624999999999993
10
-112.56250000000006
20
40.625
42
0.41421356237308982
10
-112.06250000000004
20
41.125
0
LWPOLYLINE
5
106
100
AcDbEntity
8
0
100
AcDbPolyline
90
18
70
1
43
0.0
10
-125.05575000000005
20
59.675000000000004
10
-119.70625000000004
20
59.674999999999997
42
0.41421356237310542
10
-119.20625000000004
20
60.174999999999997
10
-119.20625000000003
20
73.174999999999983
42
0.41421356237312623
10
-119.70625000000001
20
73.67500000000004
10
-125.55575000000005
20
73.674999999999983
10
-131.55575000000002
20
73.674999999999983
10
-133.99375000000003
20
73.674999999999983
10
-146.99375000000003
20
73.674999999999997
42
0.41421356237310542
10
-147.49375000000003
20
73.174999999999983
10
-147.49375000000009
20
60.174999999999997
42
0.41421356237305862
10
-146.99375000000006
20
59.675000000000004
10
-133.99375000000003
20
59.675000000000004
10
-132.05575000000005
20
59.675000000000004
10
-132.05575000000005
20
59.175000000000004
42
0.41421356237310025
10
-131.55575000000002
20
58.674999999999997
10
-125.55575000000007
20
58.67499999999999
42
0.41421356237311063
10
-125.05575000000005
20
59.175000000000004
0
LWPOLYLINE
5
107
100
AcDbEntity
8
0
100
AcDbPolyline
90
8
70
1
43
0.0
10
-99.868750000000048
20
60.17499999999999
42
0.41421356237310542
10
-99.368750000000034
20
59.674999999999997
10
-86.368750000000034
20
59.675000000000004
42
0.41421356237310542
10
-85.868750000000063
20
60.17499999999999
10
-85.868750000000034
20
73.174999999999983
42
0.41421356237311063
10
-86.368750000000034
20
73.675000000000026
10
-99.36875000000002
20
73.674999999999983
42
0.41421356237311585
10
-99.868750000000034
20
73.174999999999983
0
LWPOLYLINE
5
108
100
AcDbEntity
8
0
100
AcDbPolyline
90
8
70
1
43
0.0
10
-101.30674999999999
20
73.174999999999983
42
0.41421356237311063
10
-101.80675000000002
20
73.675000000000026
10
-107.80675000000002
20
73.674999999999983
42
0.41421356237310542
10
-108.30675000000001
20
73.174999999999983
10
-108.30675000000002
20
59.174999999999997
42
0.41421356237311063
10
-107.80675000000004
20
58.67499999999999
10
-101.80675000000005
20
58.674999999999983
42
0.41421356237310025
10
-101.30675000000004
20
59.174999999999997
0
LWPOLYLINE
5
109
100
AcDbEntity
8
0
100
AcDbPolyline
90
8
70
1
43
0.0
10
-148.93175000000002
20
59.175000000000004
10
-148.93174999999999
20
73.174999999999983
42
0.41421356237311063
10
-149.43175000000002
20
73.67500000000004
10
-155.43175000000002
20
73.674999999999997
42
0.41421356237309503
10
-155.93175000000002
20
73.174999999999983
10
-155.93175000000002
20
59.175000000000004
42
0.41421356237307944
10
-155.43175000000002
20
58.674999999999997
10
-149.43175000000002
20
58.67499999999999
42
0.41421356237310025
0
LWPOLYLINE
5
110
100
AcDbEntity
8
0
100
AcDbPolyline
90
8
70
1
43
0.0
10
-145.11250000000007
20
54.125000000000014
10
-145.11250000000007
20
41.125
42
0.41421356237307422
10
-144.61250000000004
20
40.624999999999993
10
-131.61250000000007
20
40.625
42
0.41421356237308982
10
-131.11250000000007
20
41.125
10
-131.11250000000007
20
54.125000000000014
42
0.41421356237310025
10
-131.61250000000007
20
54.625000000000021
10
-144.61250000000004
20
54.625
42
0.41421356237306384
0
LWPOLYLINE
5
111
100
AcDbEntity
8
0
100
AcDbPolyline
90
8
70
1
43
0.0
10
-150.16250000000002
20
54.125000000000014
42
0.41421356237310025
10
-150.66250000000002
20
54.625000000000021
10
-163.66250000000008
20
54.624999999999993
42
0.41421356237312101
10
-164.16250000000008
20
54.125000000000014
10
-164.16250000000005
20
41.125
42
0.41421356237314705
10
-163.66250000000008
20
40.624999999999993
10
-150.66250000000002
20
40.625
42
0.41421356237308982
10
-150.16250000000002
20
41.125
0
LWPOLYLINE
5
112
100
AcDbEntity
8
0
100
AcDbPolyline
90
8
70
1
43
0.0
10
-93.512500000000045
20
54.625000000000014
10
-106.51250000000006
20
54.624999999999993
42
0.41421356237309503
10
-107.01250000000005
20
54.125000000000007
10
-107.01250000000005
20
41.124999999999986
42
0.41421356237310542
10
-106.51250000000006
20
40.624999999999986
10
-93.512500000000045
20
40.625
42
0.41421356237311585
10
-93.012500000000045
20
41.124999999999986
10
-93.012500000000031
20
54.125000000000007
42
0.41421356237305862
0
LWPOLYLINE
5
113
100
AcDbEntity
8
0
100
AcDbPolyline
90
12
70
1
43
0.0
10
-77.930750000000018
20
58.67499999999999
10
-73.206249999999997
20
58.674999999999997
42
0.414213562373069
10
-72.706250000000026
20
59.174999999999997
10
-72.706250000000026
20
73.174999999999983
42
0.414213562373069
10
-73.206249999999997
20
73.674999999999983
10
-77.930750000000018
20
73.674999999999983
10
-79.206250000000011
20
73.674999999999983
10
-83.930750000000032
20
73.674999999999969
42
0.41421356237310542
10
-84.430750000000003
20
73.174999999999983
10
-84.430750000000074
20
59.174999999999997
42
0.41421356237310025
10
-83.930750000000074
20
58.67499999999999
10
-79.206250000000011
20
58.67499999999999
0
LWPOLYLINE
5
114
100
AcDbEntity
8
0
100
AcDbPolyline
90
8
70
1
43
0.0
10
-73.96250000000002
20
41.124999999999986
10
-73.962500000000048
20
54.125000000000007
42
0.41421356237310025
10
-74.462500000000034
20
54.624999999999993
10
-87.462500000000034
20
54.625000000000014
42
0.41421356237309503
10
-87.962500000000034
20
54.125000000000007
10
-87.962500000000063
20
41.124999999999986
42
0.4142135623730846
10
-87.462500000000034
20
40.624999999999986
10
-74.462500000000034
20
40.624999999999957
42
0.414213562373069
0
LWPOLYLINE
5
115
100
AcDbEntity
8
0
100
AcDbPolyline
90
8
70
1
43
0.0
10
-169.71250000000003
20
54.625000000000021
10
-182.71250000000009
20
54.624999999999986
42
0.41421356237308982
10
-183.21250000000006
20
54.125000000000021
10
-183.21250000000006
20
41.125000000000007
42
0.41421356237307422
10
-182.71250000000009
20
40.625
10
-169.71250000000003
20
40.624999999999972
42
0.41421356237310542
10
-169.21250000000003
20
41.125
10
-169.21250000000009
20
54.125000000000014
42
0.41421356237314705
0
LWPOLYLINE
5
116
100
AcDbEntity
8
0
100
AcDbPolyline
90
8
70
1
43
0.0
10
-207.81250000000003
20
59.675000000000004
42
0.41421356237307422
10
-207.31250000000006
20
60.175000000000011
10
-207.31250000000011
20
73.174999999999997
42
0.41421356237306384
10
-207.81250000000003
20
73.67500000000004
10
-220.81250000000006
20
73.675000000000011
42
0.41421356237310025
10
-221.31250000000006
20
73.174999999999997
10
-221.3125
20
60.175000000000011
42
0.41421356237314183
10
-220.81250000000006
20
59.675000000000011
0
LWPOLYLINE
5
117
100
AcDbEntity
8
0
100
AcDbPolyline
90
16
70
1
43
0.0
10
-179.20625000000004
20
58.674999999999997
10
-173.20625000000007
20
58.674999999999997
42
0.41421356237309503
10
-172.70625000000007
20
59.175000000000004
10
-172.70625000000007
20
59.675000000000004
10
-167.33125000000004
20
59.675000000000004
42
0.41421356237313145
10
-166.83125000000004
20
60.174999999999997
10
-166.83125000000004
20
73.174999999999983
42
0.41421356237307944
10
-167.33125000000004
20
73.67500000000004
10
-173.20625000000007
20
73.674999999999983
10
-179.20625000000004
20
73.674999999999983
10
-180.33125000000007
20
73.675000000000011
42
0.41421356237310025
10
-180.83125000000007
20
73.174999999999983
10
-180.83125000000001
20
60.174999999999997
42
0.41421356237314183
10
-180.33125000000007
20
59.675000000000004
10
-179.70625000000007
20
59.675000000000004
10
-179.70625000000007
20
59.175000000000004
42
0.41421356237312623
0
LWPOLYLINE
5
118
100
AcDbEntity
8
0
100
AcDbPolyline
90
8
70
1
43
0.0
10
-188.26250000000002
20
73.174999999999997
42
0.41421356237307944
10
-188.76250000000002
20
73.67500000000004
10
-201.76250000000005
20
73.675000000000011
42
0.41421356237310025
10
-202.26250000000005
20
73.174999999999997
10
-202.26249999999999
20
60.175000000000011
42
0.41421356237314183
10
-201.76250000000005
20
59.675000000000011
10
-188.76250000000002
20
59.675000000000011
42
0.41421356237313145
10
-188.26250000000002
20
60.175000000000011
0
LWPOLYLINE
5
119
100
AcDbEntity
8
0
100
AcDbPolyline
90
8
70
1
43
0.0
10
-201.76250000000005
20
54.625
42
0.41421356237312101
10
-202.26250000000005
20
54.125000000000021
10
-202.26249999999999
20
41.125000000000007
42
0.41421356237314705
10
-201.76250000000005
20
40.625
10
-188.76250000000002
20
40.625000000000028
42
0.41421356237312101
10
-188.26250000000002
20
41.125000000000007
10
-188.26250000000002
20
54.125000000000021
42
0.41421356237312623
10
-188.76250000000002
20
54.625000000000028
0
LWPOLYLINE
5
120
100
AcDbEntity
8
0
100
AcDbPolyline
90
8
70
1
43
0.0
10
-68.912500000000023
20
54.125000000000007
10
-68.912500000000023
20
41.124999999999986
42
0.41421356237309503
10
-68.412500000000023
20
40.624999999999993
10
-55.412500000000051
20
40.625
42
0.4142135623730846
10
-54.912500000000044
20
41.124999999999986
10
-54.912500000000051
20
54.125000000000007
42
0.41421356237308982
10
-55.412500000000051
20
54.624999999999993
10
-68.412500000000023
20
54.625000000000021
42
0.41421356237310025
0
LWPOLYLINE
5
121
100
AcDbEntity
8
0
100
AcDbPolyline
90
8
70
1
43
0.0
10
-122.08750000000006
20
21.575000000000006
42
0.41421356237310542
10
-121.58750000000005
20
22.074999999999996
10
-121.58750000000005
20
35.075000000000003
42
0.41421356237309503
10
-122.08750000000006
20
35.57500000000001
10
-135.08750000000003
20
35.57500000000001
42
0.41421356237307422
10
-135.58750000000006
20
35.075000000000003
10
-135.58750000000006
20
22.074999999999996
42
0.41421356237307422
10
-135.08750000000003
20
21.574999999999989
0
LWPOLYLINE
5
122
100
AcDbEntity
8
0
100
AcDbPolyline
90
8
70
1
43
0.0
10
-61.268750000000018
20
59.674999999999997
10
-48.268750000000011
20
59.675000000000018
42
0.41421356237309503
10
-47.76875000000004
20
60.17499999999999
10
-47.768750000000011
20
73.174999999999983
42
0.41421356237309503
10
-48.268750000000011
20
73.674999999999983
10
-61.268750000000018
20
73.674999999999955
42
0.41421356237312101
10
-61.768750000000026
20
73.174999999999983
10
-61.76875000000004
20
60.17499999999999
42
0.41421356237312101
0
LWPOLYLINE
5
123
100
AcDbEntity
8
0
100
AcDbPolyline
90
8
70
1
43
0.0
10
-226.36250000000013
20
54.125000000000021
42
0.41421356237308982
10
-226.86250000000004
20
54.625000000000028
10
-239.86250000000007
20
54.625
42
0.41421356237312101
10
-240.36250000000007
20
54.125000000000021
10
-240.36250000000001
20
41.125000000000007
42
0.41421356237314705
10
-239.86250000000007
20
40.625
10
-226.86250000000004
20
40.624999999999972
42
0.41421356237304818
10
-226.36250000000007
20
41.125000000000007
0
LWPOLYLINE
5
124
100
AcDbEntity
8
0
100
AcDbPolyline
90
8
70
1
43
0.0
10
-240.36250000000001
20
60.175000000000011
42
0.41421356237314183
10
-239.86250000000007
20
59.675000000000011
10
-226.86250000000004
20
59.675000000000004
42
0.41421356237307422
10
-226.36250000000007
20
60.175000000000011
10
-226.36250000000013
20
73.174999999999997
42
0.41421356237306384
10
-226.86250000000004
20
73.67500000000004
10
-239.86250000000007
20
73.675000000000011
42
0.41421356237310025
10
-240.36250000000007
20
73.174999999999997
0
LWPOLYLINE
5
125
100
AcDbEntity
8
0
100
AcDbPolyline
90
8
70
1
43
0.0
10
-116.53750000000004
20
35.075000000000003
10
-116.53750000000004
20
22.074999999999996
42
0.41421356237307422
10
-116.03750000000004
20
21.574999999999989
10
-103.03750000000005
20
21.575000000000006
42
0.41421356237310542
10
-102.53750000000004
20
22.074999999999996
10
-102.53750000000004
20
35.075000000000003
42
0.41421356237309503
10
-103.03750000000005
20
35.57500000000001
10
-116.03750000000004
20
35.574999999999989
42
0.41421356237306384
0
LWPOLYLINE
5
126
100
AcDbEntity
8
0
100
AcDbPolyline
90
8
70
1
43
0.0
10
-117.32500000000005
20
16.524999999999999
10
-130.32500000000002
20
16.524999999999999
42
0.41421356237309503
10
-130.82500000000005
20
16.024999999999991
10
-130.82500000000005
20
3.0250000000000021
42
0.41421356237309503
10
-130.32500000000002
20
2.524999999999995
10
-117.32500000000005
20
2.524999999999995
42
0.41421356237312623
10
-116.82500000000006
20
3.0250000000000021
10
-116.82500000000006
20
16.024999999999991
42
0.41421356237306384
0
LWPOLYLINE
5
127
100
AcDbEntity
8
0
100
AcDbPolyline
90
8
70
1
43
0.0
10
-49.362500000000011
20
54.624999999999986
42
0.41421356237312101
10
-49.862500000000018
20
54.125000000000007
10
-49.862500000000011
20
41.124999999999986
42
0.41421356237309503
10
-49.362500000000011
20
40.624999999999993
10
-36.36250000000004
20
40.624999999999986
42
0.41421356237308982
10
-35.862500000000033
20
41.124999999999979
10
-35.86250000000004
20
54.125
42
0.41421356237309503
10
-36.36250000000004
20
54.624999999999993
0
LWPOLYLINE
5
128
100
AcDbEntity
8
0
100
AcDbPolyline
90
8
70
1
43
0.0
10
-136.37500000000006
20
2.524999999999995
42
0.41421356237307422
10
-135.87500000000003
20
3.0250000000000021
10
-135.87500000000006
20
16.024999999999991
42
0.4142135623730846
10
-136.37500000000006
20
16.524999999999999
10
-149.37500000000003
20
16.524999999999999
42
0.41421356237309503
10
-149.87500000000006
20
16.024999999999991
10
-149.87500000000006
20
3.0250000000000021
42
0.41421356237309503
10
-149.37500000000003
20
2.524999999999995
0
LWPOLYLINE
5
129
100
AcDbEntity
8
0
100
AcDbPolyline
90
8
70
1
43
0.0
10
-97.48750000000004
20
35.075000000000003
10
-97.48750000000004
20
22.074999999999996
42
0.41421356237309503
10
-96.98750000000004
20
21.574999999999989
10
-83.987499999999997
20
21.575000000000024
42
0.41421356237309503
10
-83.487500000000026
20
22.074999999999996
10
-83.487500000000026
20
35.075000000000003
42
0.41421356237307422
10
-83.987499999999997
20
35.57500000000001
10
-96.98750000000004
20
35.57500000000001
42
0.41421356237309503
0
LWPOLYLINE
5
130
100
AcDbEntity
8
0
100
AcDbPolyline
90
8
70
1
43
0.0
10
-111.77500000000006
20
3.0250000000000021
42
0.41421356237309503
10
-111.27500000000005
20
2.524999999999995
10
-98.275000000000034
20
2.524999999999995
42
0.41421356237312623
10
-97.775000000000048
20
3.0250000000000021
10
-97.775000000000048
20
16.024999999999991
42
0.41421356237306384
10
-98.275000000000034
20
16.524999999999999
10
-111.27500000000005
20
16.524999999999999
42
0.41421356237309503
10
-111.77500000000006
20
16.024999999999991
0
LWPOLYLINE
5
131
100
AcDbEntity
8
0
100
AcDbPolyline
90
8
70
1
43
0.0
10
-26.837500000000034
20
35.574999999999989
10
-39.837500000000041
20
35.575000000000031
42
0.41421356237307422
10
-40.337500000000048
20
35.074999999999989
10
-40.337500000000048
20
22.074999999999996
42
0.41421356237309503
10
-39.837500000000041
20
21.574999999999989
10
-26.837500000000034
20
21.574999999999971
42
0.41421356237310542
10
-26.337500000000027
20
22.074999999999996
10
-26.337500000000027
20
35.074999999999989
42
0.41421356237309503
0
LWPOLYLINE
5
132
100
AcDbEntity
8
0
100
AcDbPolyline
90
8
70
1
43
0.0
10
-40.337500000000013
20
73.174999999999983
10
-40.337500000000048
20
60.17499999999999
42
0.41421356237308982
10
-39.837500000000041
20
59.674999999999997
10
-26.837500000000034
20
59.674999999999976
42
0.41421356237309503
10
-26.337500000000027
20
60.174999999999983
10
-26.337500000000034
20
73.174999999999969
42
0.41421356237309503
10
-26.837500000000034
20
73.674999999999969
10
-39.837500000000041
20
73.674999999999983
42
0.41421356237307422
0
LWPOLYLINE
5
133
100
AcDbEntity
8
0
100
AcDbPolyline
90
8
70
1
43
0.0
10
-221.31250000000006
20
54.125000000000021
10
-221.3125
20
41.125000000000007
42
0.41421356237314705
10
-220.81250000000006
20
40.625
10
-207.81250000000003
20
40.624999999999972
42
0.41421356237304818
10
-207.31250000000006
20
41.125000000000007
10
-207.31250000000011
20
54.125000000000021
42
0.41421356237308982
10
-207.81250000000003
20
54.625000000000028
10
-220.81250000000006
20
54.625
42
0.41421356237312101
0
LWPOLYLINE
5
134
100
AcDbEntity
8
0
100
AcDbPolyline
90
8
70
1
43
0.0
10
-141.13750000000005
20
35.57500000000001
10
-154.13750000000005
20
35.57500000000001
42
0.41421356237307422
10
-154.63750000000007
20
35.075000000000003
10
-154.63750000000005
20
22.074999999999996
42
0.41421356237309503
10
-154.13750000000005
20
21.574999999999989
10
-141.13750000000005
20
21.575000000000006
42
0.41421356237310542
10
-140.63750000000002
20
22.074999999999996
10
-140.63750000000002
20
35.075000000000003
42
0.41421356237309503
0
LWPOLYLINE
5
135
100
AcDbEntity
8
0
100
AcDbPolyline
90
8
70
1
43
0.0
10
-58.887500000000053
20
35.57500000000001
42
0.41421356237309503
10
-59.38750000000006
20
35.075000000000003
10
-59.387500000000024
20
22.074999999999996
42
0.41421356237307422
10
-58.887500000000053
20
21.574999999999989
10
-45.887500000000045
20
21.574999999999971
42
0.41421356237310542
10
-45.387500000000038
20
22.074999999999996
10
-45.387500000000038
20
35.074999999999989
42
0.41421356237309503
10
-45.887500000000045
20
35.574999999999989
0
LWPOLYLINE
5
136
100
AcDbEntity
8
0
100
AcDbPolyline
90
8
70
1
43
0.0
10
-179.23750000000007
20
21.575000000000024
42
0.41421356237311585
10
-178.73750000000004
20
22.074999999999996
10
-178.73750000000007
20
35.075000000000003
42
0.41421356237314705
10
-179.23750000000007
20
35.57500000000001
10
-192.23750000000001
20
35.575000000000031
42
0.4142135623730846
10
-192.7375000000001
20
35.075000000000003
10
-192.7375000000001
20
22.074999999999996
42
0.41421356237307422
10
-192.23750000000007
20
21.574999999999989
0
LWPOLYLINE
5
137
100
AcDbEntity
8
0
100
AcDbPolyline
90
8
70
1
43
0.0
10
-35.575000000000031
20
3.0249999999999844
42
0.41421356237309503
10
-35.075000000000038
20
2.524999999999995
10
-22.075000000000031
20
2.5250000000000128
42
0.41421356237309503
10
-21.57500000000006
20
3.0249999999999844
10
-21.575000000000042
20
16.024999999999991
42
0.41421356237309503
10
-22.075000000000031
20
16.524999999999981
10
-35.075000000000038
20
16.524999999999999
42
0.41421356237309503
10
-35.575000000000045
20
16.024999999999991
0
LWPOLYLINE
5
138
100
AcDbEntity
8
0
100
AcDbPolyline
90
8
70
1
43
0.0
10
-193.02500000000009
20
3.0250000000000021
10
-193.02500000000009
20
16.025000000000009
42
0.41421356237312623
10
-193.52500000000009
20
16.525000000000016
10
-206.52500000000003
20
16.524999999999999
42
0.41421356237312623
10
-207.02500000000009
20
16.025000000000009
10
-207.02500000000009
20
3.0250000000000021
42
0.41421356237309503
10
-206.52500000000006
20
2.524999999999995
10
-193.52500000000015
20
2.5250000000000128
42
0.41421356237312623
0
LWPOLYLINE
5
139
100
AcDbEntity
8
0
100
AcDbPolyline
90
8
70
1
43
0.0
10
-235.10000000000005
20
21.575000000000006
10
-222.10000000000008
20
21.575000000000024
42
0.41421356237312623
10
-221.60000000000002
20
22.075000000000014
10
-221.60000000000002
20
35.075000000000003
42
0.41421356237310542
10
-222.10000000000005
20
35.57500000000001
10
-235.10000000000005
20
35.575000000000031
42
0.41421356237310542
10
-235.60000000000005
20
35.075000000000003
10
-235.60000000000002
20
22.075000000000014
42
0.41421356237314705
0
LWPOLYLINE
5
140
100
AcDbEntity
8
0
100
AcDbPolyline
90
8
70
1
43
0.0
10
-5.4062500000000213
20
35.574999999999989
10
-18.406250000000028
20
35.57500000000001
42
0.41421356237310542
10
-18.906250000000036
20
35.074999999999989
10
-18.906250000000036
20
22.074999999999996
42
0.41421356237309503
10
-18.406250000000028
20
21.574999999999989
10
-5.4062500000000213
20
21.575000000000006
42
0.41421356237309503
10
-4.9062500000000497
20
22.074999999999978
10
-4.9062500000000142
20
35.074999999999989
42
0.41421356237309503
0
LWPOLYLINE
5
141
100
AcDbEntity
8
0
100
AcDbPolyline
90
8
70
1
43
0.0
10
-18.406250000000028
20
73.674999999999983
42
0.41421356237309503
10
-18.906250000000036
20
73.174999999999969
10
-18.906250000000036
20
60.174999999999983
42
0.41421356237308982
10
-18.406250000000028
20
59.674999999999983
10
-5.4062500000000213
20
59.674999999999969
42
0.41421356237310025
10
-4.9062500000000142
20
60.174999999999983
10
-4.9062500000000231
20
73.174999999999969
42
0.41421356237309503
10
-5.4062500000000213
20
73.674999999999969
0
LWPOLYLINE
5
142
100
AcDbEntity
8
0
100
AcDbPolyline
90
8
70
1
43
0.0
10
-187.47500000000002
20
16.525000000000016
42
0.41421356237309503
10
-187.97500000000002
20
16.025000000000009
10
-187.97499999999999
20
3.0250000000000021
42
0.41421356237314705
10
-187.47500000000002
20
2.524999999999995
10
-174.47500000000014
20
2.5250000000000128
42
0.41421356237312623
10
-173.97500000000008
20
3.0250000000000021
10
-173.97500000000008
20
16.025000000000009
42
0.41421356237312623
10
-174.47500000000008
20
16.525000000000016
0
LWPOLYLINE
5
143
100
AcDbEntity
8
0
100
AcDbPolyline
90
8
70
1
43
0.0
10
-154.92500000000004
20
3.0250000000000021
10
-154.92500000000004
20
16.025000000000009
42
0.41421356237307422
10
-155.42500000000007
20
16.525000000000016
10
-168.42500000000004
20
16.524999999999981
42
0.41421356237311585
10
-168.92500000000007
20
16.025000000000009
10
-168.92500000000007
20
3.0250000000000021
42
0.41421356237310542
10
-168.42500000000004
20
2.524999999999995
10
-155.42500000000007
20
2.524999999999995
42
0.41421356237307422
0
LWPOLYLINE
5
144
100
AcDbEntity
8
0
100
AcDbPolyline
90
8
70
1
43
0.0
10
-211.78750000000005
20
35.075000000000003
10
-211.78750000000002
20
22.075000000000014
42
0.41421356237314705
10
-211.28750000000002
20
21.575000000000006
10
-198.28750000000002
20
21.574999999999989
42
0.41421356237307422
10
-197.78750000000005
20
22.074999999999996
10
-197.78750000000008
20
35.075000000000003
42
0.4142135623730846
10
-198.28750000000002
20
35.57500000000001
10
-211.28750000000002
20
35.575000000000031
42
0.41421356237310542
0
LWPOLYLINE
5
145
100
AcDbEntity
8
0
100
AcDbPolyline
90
8
70
1
43
0.0
10
-73.675000000000011
20
3.0249999999999844
42
0.41421356237309503
10
-73.175000000000026
20
2.524999999999995
10
-60.175000000000054
20
2.5249999999999773
42
0.41421356237309503
10
-59.675000000000047
20
3.0249999999999844
10
-59.675000000000068
20
16.024999999999991
42
0.41421356237309503
10
-60.175000000000054
20
16.524999999999981
10
-73.175000000000026
20
16.524999999999999
42
0.41421356237309503
10
-73.67500000000004
20
16.024999999999991
0
LWPOLYLINE
5
146
100
AcDbEntity
8
0
100
AcDbPolyline
90
8
70
1
43
0.0
10
-232.71875000000006
20
16.525000000000016
42
0.41421356237307422
10
-233.21875000000009
20
16.025000000000009
10
-233.21875000000011
20
3.0250000000000021
42
0.41421356237306384
10
-232.71875000000006
20
2.524999999999995
10
-219.71875000000006
20
2.524999999999995
42
0.41421356237309503
10
-219.21875000000003
20
3.0250000000000021
10
-219.21875000000006
20
16.025000000000009
42
0.41421356237314705
10
-219.71875000000006
20
16.525000000000016
0
LWPOLYLINE
5
147
100
AcDbEntity
8
0
100
AcDbPolyline
90
8
70
1
43
0.0
10
-10.168750000000024
20
40.624999999999957
42
0.41421356237306384
10
-9.6687500000000171
20
41.124999999999979
10
-9.6687500000000437
20
54.125
42
0.41421356237310025
10
-10.168750000000024
20
54.624999999999986
10
-23.168750000000031
20
54.625000000000014
42
0.41421356237310025
10
-23.668750000000038
20
54.125
10
-23.668750000000021
20
41.124999999999979
42
0.41421356237310025
10
-23.168750000000031
20
40.624999999999986
0
LWPOLYLINE
5
148
100
AcDbEntity
8
0
100
AcDbPolyline
90
8
70
1
43
0.0
10
-92.225000000000037
20
16.524999999999999
42
0.41421356237310542
10
-92.725000000000065
20
16.024999999999991
10
-92.725000000000051
20
3.0249999999999844
42
0.41421356237309503
10
-92.225000000000037
20
2.5249999999999773
10
-79.224999999999994
20
2.5249999999999773
42
0.41421356237307422
10
-78.725000000000023
20
3.0249999999999844
10
-78.725000000000009
20
16.024999999999991
42
0.4142135623730846
10
-79.225000000000023
20
16.524999999999999
0
LWPOLYLINE
5
149
100
AcDbEntity
8
0
100
AcDbPolyline
90
8
70
1
43
0.0
10
-78.437500000000028
20
22.074999999999996
42
0.41421356237309503
10
-77.937500000000028
20
21.574999999999989
10
-64.937500000000057
20
21.574999999999989
42
0.41421356237309503
10
-64.437500000000057
20
22.074999999999996
10
-64.437500000000057
20
35.075000000000003
42
0.41421356237309503
10
-64.937500000000057
20
35.57500000000001
10
-77.937500000000028
20
35.57500000000001
42
0.41421356237309503
10
-78.437500000000028
20
35.075000000000003
0
LWPOLYLINE
5
150
100
AcDbEntity
8
0
100
AcDbPolyline
90
8
70
1
43
0.0
10
-173.68750000000006
20
35.075000000000003
10
-173.68750000000006
20
22.074999999999996
42
0.41421356237309503
10
-173.18750000000006
20
21.574999999999989
10
-160.18750000000006
20
21.575000000000024
42
0.41421356237311585
10
-159.68750000000003
20
22.074999999999996
10
-159.68750000000003
20
35.075000000000003
42
0.41421356237309503
10
-160.18750000000006
20
35.57500000000001
10
-173.1875
20
35.575000000000031
42
0.41421356237310542
0
LWPOLYLINE
5
151
100
AcDbEntity
8
0
100
AcDbPolyline
90
8
70
1
43
0.0
10
-54.625000000000057
20
16.024999999999991
10
-54.625000000000021
20
3.0249999999999844
42
0.41421356237310542
10
-54.12500000000005
20
2.524999999999995
10
-41.125000000000043
20
2.5249999999999773
42
0.41421356237309503
10
-40.625000000000036
20
3.0249999999999844
10
-40.625000000000036
20
16.024999999999991
42
0.4142135623730846
10
-41.125000000000043
20
16.524999999999981
10
-54.12500000000005
20
16.525000000000016
42
0.41421356237310542
0
LWPOLYLINE
5
152
100
AcDbEntity
8
0
100
AcDbPolyline
90
8
70
1
43
0.0
10
-16.025000000000027
20
16.524999999999999
42
0.41421356237309503
10
-16.525000000000034
20
16.024999999999991
10
-16.525000000000034
20
3.0249999999999844
42
0.41421356237309503
10
-16.025000000000027
20
2.5249999999999773
10
-3.0250000000000199
20
2.5250000000000128
42
0.41421356237309503
10
-2.5250000000000483
20
3.0249999999999844
10
-2.5250000000000306
20
16.024999999999991
42
0.41421356237309503
10
-3.0250000000000199
20
16.524999999999981
0
ENDSEC
0
SECTION
2
OBJECTS
0
DICTIONARY
5
C
100
AcDbDictionary
3
ACAD_GROUP
350
D
3
ACAD_MLINESTYLE
350
17
0
DICTIONARY
5
D
100
AcDbDictionary
0
DICTIONARY
5
1A
330
C
100
AcDbDictionary
0
DICTIONARY
5
17
100
AcDbDictionary
0
ENDSEC
0
EOF
