0
SECTION
2
HEADER
9
$INSUNITS
70
4
9
$ACADVER
1
AC1014
9
$HANDSEED
5
FFFF
0
ENDSEC
0
SECTION
2
TABLES
0
TABLE
2
VPORT
5
8
100
AcDbSymbolTable
0
ENDTAB
0
TABLE
2
LTYPE
5
5
100
AcDbSymbolTable
0
LTYPE
5
14
100
AcDbSymbolTableRecord
100
AcDbLinetypeTableRecord
2
BYBLOCK
70
0
0
LTYPE
5
15
100
AcDbSymbolTableRecord
100
AcDbLinetypeTableRecord
2
BYLAYER
70
0
0
ENDTAB
0
TABLE
2
LAYER
5
2
100
AcDbSymbolTable
70
2
0
LAYER
5
50
100
AcDbSymbolTableRecord
100
AcDbLayerTableRecord
2
0
70
0
6
CONTINUOUS
0
ENDTAB
0
TABLE
2
STYLE
5
3
100
AcDbSymbolTable
70
1
0
STYLE
5
11
100
AcDbSymbolTableRecord
100
AcDbTextStyleTableRecord
2
STANDARD
70
0
0
ENDTAB
0
TABLE
2
VIEW
5
6
100
AcDbSymbolTable
70
0
0
ENDTAB
0
TABLE
2
UCS
5
7
100
AcDbSymbolTable
70
0
0
ENDTAB
0
TABLE
2
APPID
5
9
100
AcDbSymbolTable
70
2
0
APPID
5
12
100
AcDbSymbolTableRecord
100
AcDbRegAppTableRecord
2
ACAD
70
0
0
ENDTAB
0
TABLE
2
DIMSTYLE
5
A
100
AcDbSymbolTable
70
1
0
ENDTAB
0
TABLE
2
BLOCK_RECORD
5
1
100
AcDbSymbolTable
70
1
0
BLOCK_RECORD
5
1F
100
AcDbSymbolTableRecord
100
AcDbBlockTableRecord
2
*MODEL_SPACE
0
BLOCK_RECORD
5
1B
100
AcDbSymbolTableRecord
100
AcDbBlockTableRecord
2
*PAPER_SPACE
0
ENDTAB
0
ENDSEC
0
SECTION
2
BLOCKS
0
BLOCK
5
20
100
AcDbEntity
100
AcDbBlockBegin
2
*MODEL_SPACE
0
ENDBLK
5
21
100
AcDbEntity
100
AcDbBlockEnd
0
BLOCK
5
1C
100
AcDbEntity
100
AcDbBlockBegin
2
*PAPER_SPACE
0
ENDBLK
5
1D
100
AcDbEntity
100
AcDbBlockEnd
0
ENDSEC
0
SECTION
2
ENTITIES
0
CIRCLE
5
100
100
AcDbEntity
8
0
100
AcDbCircle
10
-152.40000000000003
20
8.2750000000000501
30
0
40
0.74999999999999289
210
-0
220
0
230
1
0
CIRCLE
5
101
100
AcDbEntity
8
0
100
AcDbCircle
10
-76.200000000000017
20
8.2750000000000234
30
0
40
0.74999999999999289
210
-0
220
0
230
1
0
CIRCLE
5
102
100
AcDbEntity
8
0
100
AcDbCircle
10
-19.050000000000008
20
8.2750000000000039
30
0
40
0.75000000000000178
210
-0
220
0
230
1
0
CIRCLE
5
103
100
AcDbEntity
8
0
100
AcDbCircle
10
-95.25
20
8.2750000000000306
30
0
40
0.74999999999999289
210
-0
220
0
230
1
0
CIRCLE
5
104
100
AcDbEntity
8
0
100
AcDbCircle
10
-171.44999999999996
20
8.2750000000000572
30
0
40
0.74999999999999289
210
-0
220
0
230
1
0
CIRCLE
5
105
100
AcDbEntity
8
0
100
AcDbCircle
10
-133.35000000000005
20
8.275000000000043
30
0
40
0.74999999999999289
210
-0
220
0
230
1
0
CIRCLE
5
106
100
AcDbEntity
8
0
100
AcDbCircle
10
-57.15000000000002
20
8.2750000000000163
30
0
40
0.75000000000000178
210
-0
220
0
230
1
0
CIRCLE
5
107
100
AcDbEntity
8
0
100
AcDbCircle
10
-38.100000000000023
20
8.2750000000000092
30
0
40
0.75000000000000178
210
-0
220
0
230
1
0
CIRCLE
5
108
100
AcDbEntity
8
0
100
AcDbCircle
10
-114.3
20
8.2750000000000377
30
0
40
0.74999999999999289
210
-0
220
0
230
1
0
CIRCLE
5
109
100
AcDbEntity
8
0
100
AcDbCircle
10
-190.49999999999997
20
8.2750000000000625
30
0
40
0.74999999999999289
210
-0
220
0
230
1
0
LWPOLYLINE
5
110
100
AcDbEntity
8
0
100
AcDbPolyline
90
4
70
1
43
0.0
10
-215.52649999999997
20
79.599999999999994
10
-171.52649999999997
20
79.599999999999994
42
0.99999999999999989
10
-171.52649999999997
20
80.599999999999994
10
-215.5265
20
80.599999999999937
42
0.99999999999999989
0
LWPOLYLINE
5
111
100
AcDbEntity
8
0
100
AcDbPolyline
90
4
70
1
43
0.0
10
-71.36099999999999
20
79.600000000000009
10
-27.361000000000004
20
79.599999999999994
42
0.99999999999999989
10
-27.361000000000004
20
80.599999999999994
10
-71.36099999999999
20
80.599999999999952
42
0.99999999999999989
0
LWPOLYLINE
5
112
100
AcDbEntity
8
0
100
AcDbPolyline
90
4
70
1
43
0.0
10
-27.361000000000004
20
-3.4000000000000052
10
-71.36099999999999
20
-3.400000000000003
42
0.99999999999999989
10
-71.36099999999999
20
-4.3999999999999995
10
-27.361000000000001
20
-4.3999999999999506
42
0.99999999999999989
0
LWPOLYLINE
5
113
100
AcDbEntity
8
0
100
AcDbPolyline
90
4
70
1
43
0.0
10
-171.52649999999997
20
-3.3999999999990154
10
-215.52649999999997
20
-3.3999999999990154
42
0.99999999999999989
10
-215.52649999999997
20
-4.3999999999990056
10
-171.52649999999997
20
-4.3999999999989567
42
0.99999999999999989
0
LWPOLYLINE
5
114
100
AcDbEntity
8
0
100
AcDbPolyline
90
56
70
1
43
0.0
10
-240.73749999999993
20
76.94999999999996
10
-195.52649999999997
20
76.94999999999996
42
0.99999999999999989
10
-195.52649999999997
20
77.949999999999974
10
-216.82649999999995
20
77.94999999999996
42
-0.4142135623731002
10
-218.32649999999995
20
79.449999999999974
10
-218.32649999999998
20
80.499999999999972
42
-0.41421356237311241
10
-216.82649999999998
20
81.999999999999972
10
-170.22649999999996
20
82.000000000000014
42
-0.41421356237309853
10
-168.72649999999996
20
80.499999999999972
10
-168.72649999999999
20
79.44999999999996
42
-0.4142135623731002
10
-170.22649999999999
20
77.949999999999974
10
-191.52649999999997
20
77.949999999999974
42
0.99999999999999989
10
-191.52649999999997
20
76.94999999999996
10
-51.360999999998349
20
76.949999999999989
42
0.99999999999999989
10
-51.360999999998342
20
77.949999999999974
10
-72.661000000000001
20
77.949999999999989
42
-0.4142135623730881
10
-74.161000000000001
20
79.449999999999989
10
-74.161000000000016
20
80.499999999999972
42
-0.4142135623730881
10
-72.661000000000001
20
82
10
-26.061
20
82
42
-0.41421356237309509
10
-24.561000000000007
20
80.499999999999986
10
-24.560999999999993
20
79.449999999999989
42
-0.41421356237309587
10
-26.060999999999993
20
77.949999999999974
10
-47.360999999998334
20
77.949999999999974
42
0.99999999999999989
10
-47.360999999998356
20
76.949999999999989
10
-2.1500000000000083
20
76.949999999999989
42
-0.41421356237309431
10
-0.15000000000001038
20
74.949999999999989
10
-0.15000000000000013
20
1.2500000000000009
42
-0.4142135623730952
10
-2.1499999999999986
20
-0.74999999999999889
10
-47.360999999999947
20
-0.75000000000000122
42
0.99999999999999989
10
-47.360999999999969
20
-1.7500000000000027
10
-26.060999999999996
20
-1.7500000000000038
42
-0.41421356237309825
10
-24.560999999999989
20
-3.2500000000000018
10
-24.560999999999986
20
-4.3000000000000016
42
-0.41421356237309775
10
-26.060999999999996
20
-5.8000000000000025
10
-72.661000000000001
20
-5.7999999999999963
42
-0.4142135623730937
10
-74.161000000000001
20
-4.2999999999999989
10
-74.161000000000001
20
-3.250000000000004
42
-0.41421356237309198
10
-72.661000000000001
20
-1.7500000000000027
10
-51.360999999999962
20
-1.7500000000000016
42
0.99999999999999989
10
-51.360999999999954
20
-0.75000000000000067
10
-191.52649999999994
20
-0.75000000000001199
42
0.99999999999999989
10
-191.52649999999997
20
-1.7500000000000027
10
-170.22649999999996
20
-1.7499999999999916
42
-0.41421356237311374
10
-168.72649999999996
20
-3.2500000000000018
10
-168.72649999999993
20
-4.3000000000000105
42
-0.41421356237312118
10
-170.22649999999996
20
-5.800000000000014
10
-216.82649999999995
20
-5.8000000000000203
42
-0.41421356237309981
10
-218.32649999999995
20
-4.3000000000000105
10
-218.32649999999998
20
-3.2500000000000018
42
-0.41421356237311374
10
-216.82649999999998
20
-1.7500000000000027
10
-195.52649999999997
20
-1.7500000000000013
42
0.99999999999999989
10
-195.52649999999997
20
-0.75000000000001166
10
-240.73749999999995
20
-0.74999999999999778
42
-0.41421356237309703
10
-242.73749999999993
20
1.2499999999999734
10
-242.73749999999993
20
74.949999999999918
42
-0.4142135623731002
0
LWPOLYLINE
5
115
100
AcDbEntity
8
0
100
AcDbPolyline
90
8
70
1
43
0.0
10
-211.28749999999997
20
21.574999999999974
10
-198.28749999999997
20
21.574999999999989
42
0.41421356237313145
10
-197.78749999999997
20
22.074999999999989
10
-197.78749999999997
20
35.074999999999989
42
0.414213562373134
10
-198.28749999999997
20
35.574999999999996
10
-211.28749999999997
20
35.574999999999989
42
0.4142135623731002
10
-211.78749999999997
20
35.074999999999989
10
-211.78749999999997
20
22.074999999999989
42
0.41421356237310281
0
LWPOLYLINE
5
116
100
AcDbEntity
8
0
100
AcDbPolyline
90
8
70
1
43
0.0
10
-220.81249999999997
20
40.624999999999972
10
-207.81249999999997
20
40.624999999999972
42
0.41421356237313145
10
-207.31249999999994
20
41.124999999999979
10
-207.31249999999994
20
54.124999999999986
42
0.41421356237313145
10
-207.81249999999997
20
54.624999999999993
10
-220.81249999999997
20
54.624999999999993
42
0.41421356237312101
10
-221.31249999999997
20
54.124999999999986
10
-221.31249999999997
20
41.124999999999979
42
0.41421356237312101
0
LWPOLYLINE
5
117
100
AcDbEntity
8
0
100
AcDbPolyline
90
8
70
1
43
0.0
10
-220.81249999999997
20
59.674999999999976
10
-207.81249999999997
20
59.674999999999997
42
0.41421356237313667
10
-207.31249999999994
20
60.174999999999983
10
-207.31249999999994
20
73.174999999999983
42
0.41421356237313145
10
-207.81249999999997
20
73.674999999999997
10
-220.81249999999997
20
73.674999999999983
42
0.41421356237311585
10
-221.31249999999997
20
73.174999999999983
10
-221.31249999999997
20
60.174999999999983
42
0.41421356237312629
0
LWPOLYLINE
5
118
100
AcDbEntity
8
0
100
AcDbPolyline
90
8
70
1
43
0.0
10
-55.412499999999994
20
54.624999999999993
42
-0.41421356237310542
10
-54.912500000000001
20
54.125
10
-54.912500000000001
20
41.124999999999986
42
-0.41421356237310542
10
-55.412499999999994
20
40.624999999999993
10
-68.412499999999994
20
40.624999999999993
42
-0.41421356237310542
10
-68.91249999999998
20
41.124999999999986
10
-68.91249999999998
20
54.125
42
-0.41421356237310542
10
-68.412499999999994
20
54.624999999999993
0
LWPOLYLINE
5
119
100
AcDbEntity
8
0
100
AcDbPolyline
90
8
70
1
43
0.0
10
-79.706249999999997
20
72.174999999999997
42
-0.41421356237310542
10
-79.206249999999997
20
72.674999999999997
10
-73.206249999999997
20
72.674999999999997
42
-0.4142135623731002
10
-72.706249999999983
20
72.174999999999997
10
-72.706249999999983
20
58.17499999999999
42
-0.41421356237309509
10
-73.206249999999983
20
57.67499999999999
10
-79.206249999999997
20
57.67499999999999
42
-0.41421356237310542
10
-79.706249999999997
20
58.17499999999999
0
LWPOLYLINE
5
120
100
AcDbEntity
8
0
100
AcDbPolyline
90
8
70
1
43
0.0
10
-119.70624999999998
20
73.674999999999983
42
-0.41421356237309509
10
-119.20624999999998
20
73.174999999999983
10
-119.20624999999998
20
60.174999999999983
42
-0.41421356237311063
10
-119.70624999999998
20
59.674999999999997
10
-132.70624999999998
20
59.674999999999969
42
-0.41421356237307944
10
-133.20625000000001
20
60.174999999999983
10
-133.20625000000001
20
73.174999999999983
42
-0.41421356237309509
10
-132.70625000000001
20
73.674999999999969
0
LWPOLYLINE
5
121
100
AcDbEntity
8
0
100
AcDbPolyline
90
8
70
1
43
0.0
10
-164.16249999999997
20
54.124999999999986
42
-0.41421356237313145
10
-163.66249999999997
20
54.624999999999993
10
-150.66249999999999
20
54.624999999999993
42
-0.41421356237307422
10
-150.16249999999997
20
54.124999999999986
10
-150.16249999999999
20
41.124999999999979
42
-0.4142135623731002
10
-150.66249999999999
20
40.624999999999993
10
-163.66249999999997
20
40.624999999999986
42
-0.41421356237313145
10
-164.16249999999997
20
41.124999999999979
0
LWPOLYLINE
5
122
100
AcDbEntity
8
0
100
AcDbPolyline
90
8
70
1
43
0.0
10
-145.11249999999998
20
54.124999999999986
42
-0.41421356237311585
10
-144.61250000000001
20
54.624999999999979
10
-131.61250000000001
20
54.624999999999993
42
-0.41421356237307422
10
-131.11250000000001
20
54.124999999999986
10
-131.11250000000001
20
41.124999999999979
42
-0.4142135623731002
10
-131.61250000000001
20
40.624999999999993
10
-144.61250000000001
20
40.624999999999972
42
-0.41421356237309509
10
-145.11250000000001
20
41.124999999999979
0
LWPOLYLINE
5
123
100
AcDbEntity
8
0
100
AcDbPolyline
90
8
70
1
43
0.0
10
-130.82499999999999
20
16.024999999999991
42
-0.41421356237307549
10
-130.32499999999996
20
16.524999999999999
10
-117.325
20
16.525000000000002
42
-0.41421356237307549
10
-116.82499999999999
20
16.024999999999991
10
-116.82499999999999
20
3.0249999999999932
42
-0.41421356237307388
10
-117.325
20
2.5249999999999857
10
-130.32499999999996
20
2.5249999999999861
42
-0.41421356237307422
10
-130.82499999999999
20
3.0249999999999932
0
LWPOLYLINE
5
124
100
AcDbEntity
8
0
100
AcDbPolyline
90
8
70
1
43
0.0
10
-111.77500000000001
20
16.024999999999991
42
-0.41421356237307549
10
-111.27499999999999
20
16.524999999999999
10
-98.274999999999991
20
16.524999999999999
42
-0.41421356237307422
10
-97.774999999999977
20
16.024999999999991
10
-97.774999999999977
20
3.0249999999999932
42
-0.41421356237307327
10
-98.274999999999991
20
2.5249999999999866
10
-111.27499999999999
20
2.524999999999987
42
-0.41421356237307361
10
-111.77500000000001
20
3.0249999999999932
0
LWPOLYLINE
5
125
100
AcDbEntity
8
0
100
AcDbPolyline
90
8
70
1
43
0.0
10
-168.92499999999998
20
16.024999999999988
42
-0.41421356237313273
10
-168.42499999999998
20
16.524999999999995
10
-155.42500000000001
20
16.524999999999995
42
-0.41421356237309509
10
-154.92500000000001
20
16.024999999999988
10
-154.92500000000001
20
3.024999999999991
42
-0.4142135623730947
10
-155.42500000000001
20
2.5249999999999835
10
-168.42499999999998
20
2.5249999999999897
42
-0.41421356237313345
10
-168.92499999999998
20
3.024999999999991
0
LWPOLYLINE
5
126
100
AcDbEntity
8
0
100
AcDbPolyline
90
8
70
1
43
0.0
10
-135.58749999999998
20
35.074999999999989
42
-0.41421356237311319
10
-135.08749999999998
20
35.574999999999982
10
-122.08750000000001
20
35.574999999999989
42
-0.41421356237307422
10
-121.58749999999999
20
35.074999999999989
10
-121.58750000000001
20
22.074999999999989
42
-0.4142135623730977
10
-122.08750000000001
20
21.574999999999996
10
-135.08749999999998
20
21.574999999999985
42
-0.41421356237309243
10
-135.58750000000001
20
22.074999999999989
0
LWPOLYLINE
5
127
100
AcDbEntity
8
0
100
AcDbPolyline
90
8
70
1
43
0.0
10
-149.875
20
16.024999999999988
42
-0.41421356237307422
10
-149.37499999999997
20
16.524999999999995
10
-136.375
20
16.524999999999995
42
-0.4142135623730937
10
-135.875
20
16.024999999999988
10
-135.875
20
3.024999999999991
42
-0.41421356237309409
10
-136.375
20
2.5249999999999844
10
-149.37499999999997
20
2.5249999999999853
42
-0.41421356237307361
10
-149.875
20
3.024999999999991
0
LWPOLYLINE
5
128
100
AcDbEntity
8
0
100
AcDbPolyline
90
8
70
1
43
0.0
10
-107.01249999999999
20
54.124999999999986
42
-0.4142135623731002
10
-106.51249999999999
20
54.624999999999979
10
-93.512499999999989
20
54.624999999999993
42
-0.41421356237307422
10
-93.012499999999974
20
54.124999999999986
10
-93.012499999999989
20
41.124999999999979
42
-0.4142135623731002
10
-93.512499999999989
20
40.624999999999993
10
-106.51249999999999
20
40.624999999999972
42
-0.41421356237307422
10
-107.0125
20
41.124999999999979
0
LWPOLYLINE
5
129
100
AcDbEntity
8
0
100
AcDbPolyline
90
8
70
1
43
0.0
10
-64.9375
20
35.574999999999989
42
-0.41421356237309509
10
-64.4375
20
35.074999999999996
10
-64.4375
20
22.074999999999992
42
-0.41421356237309509
10
-64.9375
20
21.574999999999992
10
-77.9375
20
21.574999999999992
42
-0.4142135623730977
10
-78.437499999999986
20
22.074999999999996
10
-78.437499999999986
20
35.074999999999996
42
-0.4142135623730977
10
-77.9375
20
35.574999999999989
0
LWPOLYLINE
5
130
100
AcDbEntity
8
0
100
AcDbPolyline
90
8
70
1
43
0.0
10
-92.724999999999994
20
16.024999999999995
42
-0.41421356237307422
10
-92.22499999999998
20
16.525000000000002
10
-79.224999999999994
20
16.524999999999991
42
-0.4142135623731002
10
-78.724999999999994
20
16.024999999999995
10
-78.724999999999994
20
3.0249999999999955
42
-0.41421356237309437
10
-79.22499999999998
20
2.5249999999999968
10
-92.22499999999998
20
2.5249999999999884
42
-0.41421356237307422
10
-92.724999999999994
20
3.0249999999999955
0
LWPOLYLINE
5
131
100
AcDbEntity
8
0
100
AcDbPolyline
90
8
70
1
43
0.0
10
-173.20625000000001
20
72.674999999999969
42
-0.41421356237312101
10
-172.70624999999998
20
72.174999999999983
10
-172.70624999999995
20
58.17499999999999
42
-0.41421356237312629
10
-173.20625000000001
20
57.674999999999976
10
-179.20624999999998
20
57.674999999999983
42
-0.41421356237313145
10
-179.70624999999998
20
58.174999999999983
10
-179.70624999999998
20
72.174999999999997
42
-0.41421356237312629
10
-179.20624999999998
20
72.674999999999997
0
LWPOLYLINE
5
132
100
AcDbEntity
8
0
100
AcDbPolyline
90
8
70
1
43
0.0
10
-74.462500000000006
20
54.624999999999993
42
-0.41421356237309509
10
-73.962500000000006
20
54.125
10
-73.962500000000006
20
41.124999999999986
42
-0.41421356237308982
10
-74.462499999999991
20
40.624999999999993
10
-87.462500000000006
20
40.624999999999972
42
-0.41421356237309509
10
-87.962500000000006
20
41.124999999999979
10
-87.962499999999991
20
54.124999999999986
42
-0.41421356237311585
10
-87.462500000000006
20
54.624999999999979
0
LWPOLYLINE
5
133
100
AcDbEntity
8
0
100
AcDbPolyline
90
8
70
1
43
0.0
10
-73.674999999999983
20
16.024999999999995
42
-0.4142135623730977
10
-73.174999999999983
20
16.524999999999991
10
-60.174999999999983
20
16.524999999999991
42
-0.41421356237308982
10
-59.674999999999997
20
16.024999999999995
10
-59.674999999999997
20
3.0249999999999955
42
-0.4142135623730937
10
-60.17499999999999
20
2.5249999999999977
10
-73.174999999999983
20
2.5249999999999941
42
-0.41421356237309698
10
-73.674999999999983
20
3.0249999999999955
0
LWPOLYLINE
5
134
100
AcDbEntity
8
0
100
AcDbPolyline
90
8
70
1
43
0.0
10
-116.53749999999997
20
35.074999999999996
42
-0.41421356237311319
10
-116.03749999999998
20
35.574999999999982
10
-103.03749999999999
20
35.574999999999996
42
-0.41421356237307161
10
-102.53749999999998
20
35.074999999999996
10
-102.53749999999999
20
22.074999999999992
42
-0.4142135623730977
10
-103.03749999999999
20
21.575000000000003
10
-116.03749999999998
20
21.574999999999989
42
-0.41421356237309509
10
-116.53749999999999
20
22.074999999999996
0
LWPOLYLINE
5
135
100
AcDbEntity
8
0
100
AcDbPolyline
90
8
70
1
43
0.0
10
-154.63749999999999
20
35.074999999999989
42
-0.4142135623730977
10
-154.13749999999999
20
35.574999999999982
10
-141.13749999999999
20
35.574999999999989
42
-0.41421356237307422
10
-140.63749999999996
20
35.074999999999989
10
-140.63749999999999
20
22.074999999999989
42
-0.4142135623730977
10
-141.13749999999999
20
21.574999999999996
10
-154.13749999999999
20
21.574999999999985
42
-0.41421356237307161
10
-154.63749999999999
20
22.074999999999989
0
LWPOLYLINE
5
136
100
AcDbEntity
8
0
100
AcDbPolyline
90
8
70
1
43
0.0
10
-126.06249999999997
20
54.124999999999986
42
-0.41421356237311585
10
-125.56249999999999
20
54.624999999999979
10
-112.5625
20
54.624999999999993
42
-0.41421356237307422
10
-112.06249999999999
20
54.124999999999986
10
-112.0625
20
41.124999999999979
42
-0.4142135623731002
10
-112.5625
20
40.624999999999993
10
-125.56249999999999
20
40.624999999999972
42
-0.41421356237309509
10
-126.0625
20
41.124999999999979
0
LWPOLYLINE
5
137
100
AcDbEntity
8
0
100
AcDbPolyline
90
8
70
1
43
0.0
10
-160.18749999999997
20
35.574999999999989
42
-0.41421356237309509
10
-159.68749999999997
20
35.074999999999989
10
-159.68749999999997
20
22.074999999999989
42
-0.41421356237312362
10
-160.18749999999997
20
21.574999999999996
10
-173.18749999999997
20
21.574999999999989
42
-0.41421356237313145
10
-173.6875
20
22.074999999999989
10
-173.6875
20
35.074999999999989
42
-0.414213562373134
10
-173.18749999999997
20
35.574999999999996
0
LWPOLYLINE
5
138
100
AcDbEntity
8
0
100
AcDbPolyline
90
8
70
1
43
0.0
10
-83.987499999999983
20
35.574999999999996
42
-0.41421356237307161
10
-83.487499999999969
20
35.074999999999996
10
-83.487499999999969
20
22.074999999999992
42
-0.41421356237307422
10
-83.987499999999983
20
21.574999999999985
10
-96.987499999999983
20
21.574999999999989
42
-0.41421356237307422
10
-97.487499999999997
20
22.074999999999996
10
-97.487499999999983
20
35.074999999999996
42
-0.4142135623730977
10
-96.987499999999983
20
35.574999999999982
0
LWPOLYLINE
5
139
100
AcDbEntity
8
0
100
AcDbPolyline
90
8
70
1
43
0.0
10
-169.71249999999998
20
54.624999999999972
42
-0.41421356237312101
10
-169.21249999999998
20
54.124999999999986
10
-169.21249999999992
20
41.124999999999979
42
-0.41421356237312101
10
-169.71249999999998
20
40.624999999999972
10
-182.71249999999998
20
40.624999999999986
42
-0.41421356237313145
10
-183.21249999999998
20
41.124999999999979
10
-183.21249999999998
20
54.124999999999986
42
-0.41421356237313145
10
-182.71249999999998
20
54.624999999999993
0
LWPOLYLINE
5
140
100
AcDbEntity
8
0
100
AcDbPolyline
90
8
70
1
43
0.0
10
-179.23749999999998
20
35.574999999999996
10
-192.23749999999998
20
35.574999999999996
42
0.414213562373134
10
-192.73750000000001
20
35.074999999999989
10
-192.73750000000001
20
22.074999999999989
42
0.41421356237313145
10
-192.23749999999998
20
21.574999999999982
10
-179.23749999999998
20
21.574999999999982
42
0.4142135623731002
10
-178.73749999999998
20
22.074999999999989
10
-178.73749999999998
20
35.074999999999989
42
0.41421356237310281
0
LWPOLYLINE
5
141
100
AcDbEntity
8
0
100
AcDbPolyline
90
8
70
1
43
0.0
10
-201.76249999999996
20
40.624999999999972
10
-188.76249999999996
20
40.624999999999986
42
0.41421356237313145
10
-188.26249999999993
20
41.124999999999979
10
-188.26249999999993
20
54.124999999999986
42
0.41421356237313145
10
-188.76249999999996
20
54.624999999999993
10
-201.76249999999996
20
54.624999999999993
42
0.41421356237312101
10
-202.26249999999996
20
54.124999999999986
10
-202.26249999999996
20
41.124999999999979
42
0.41421356237312101
0
LWPOLYLINE
5
142
100
AcDbEntity
8
0
100
AcDbPolyline
90
8
70
1
43
0.0
10
-201.76249999999996
20
59.674999999999976
10
-188.76249999999996
20
59.674999999999997
42
0.41421356237313667
10
-188.26249999999993
20
60.174999999999983
10
-188.26249999999993
20
73.174999999999983
42
0.41421356237313145
10
-188.76249999999996
20
73.674999999999997
10
-201.76249999999996
20
73.674999999999983
42
0.41421356237311585
10
-202.26249999999996
20
73.174999999999983
10
-202.26249999999996
20
60.174999999999983
42
0.41421356237312629
0
LWPOLYLINE
5
143
100
AcDbEntity
8
0
100
AcDbPolyline
90
8
70
1
43
0.0
10
-206.52500000000001
20
2.5249999999999817
10
-193.52499999999998
20
2.5249999999999884
42
0.41421356237310153
10
-193.02499999999998
20
3.0249999999999888
10
-193.02499999999998
20
16.024999999999988
42
0.41421356237312362
10
-193.52499999999998
20
16.524999999999995
10
-206.52500000000001
20
16.524999999999995
42
0.414213562373134
10
-207.02500000000001
20
16.024999999999988
10
-207.02500000000001
20
3.0249999999999888
42
0.41421356237313345
0
LWPOLYLINE
5
144
100
AcDbEntity
8
0
100
AcDbPolyline
90
8
70
1
43
0.0
10
-187.97499999999999
20
16.024999999999988
42
-0.41421356237312362
10
-187.47499999999997
20
16.524999999999995
10
-174.47499999999997
20
16.525000000000006
42
-0.41421356237310281
10
-173.97499999999997
20
16.024999999999988
10
-173.97499999999997
20
3.0249999999999888
42
-0.41421356237310092
10
-174.47499999999997
20
2.5249999999999826
10
-187.47499999999997
20
2.5249999999999706
42
-0.41421356237310153
10
-187.97499999999997
20
3.0249999999999888
0
LWPOLYLINE
5
145
100
AcDbEntity
8
0
100
AcDbPolyline
90
8
70
1
43
0.0
10
-48.268749999999997
20
73.674999999999997
10
-61.268749999999983
20
73.674999999999997
42
0.4142135623731002
10
-61.76874999999999
20
73.174999999999983
10
-61.76874999999999
20
60.17499999999999
42
0.4142135623731002
10
-61.268749999999983
20
59.674999999999997
10
-48.268749999999997
20
59.674999999999997
42
0.4142135623731002
10
-47.768750000000004
20
60.174999999999997
10
-47.768749999999997
20
73.174999999999983
42
0.41421356237310542
0
LWPOLYLINE
5
146
100
AcDbEntity
8
0
100
AcDbPolyline
90
8
70
1
43
0.0
10
-49.362499999999997
20
40.624999999999993
10
-36.362500000000004
20
40.624999999999993
42
0.41421356237310281
10
-35.862499999999997
20
41.124999999999986
10
-35.862500000000004
20
54.125
42
0.4142135623731002
10
-36.362500000000004
20
54.624999999999993
10
-49.362500000000004
20
54.624999999999993
42
0.4142135623731002
10
-49.862499999999983
20
54.125
10
-49.86249999999999
20
41.124999999999986
42
0.41421356237310542
0
LWPOLYLINE
5
147
100
AcDbEntity
8
0
100
AcDbPolyline
90
8
70
1
43
0.0
10
-58.887500000000003
20
21.574999999999992
10
-45.88750000000001
20
21.574999999999992
42
0.41421356237310802
10
-45.387500000000003
20
22.074999999999992
10
-45.387499999999996
20
35.074999999999996
42
0.41421356237310802
10
-45.88750000000001
20
35.574999999999989
10
-58.887500000000003
20
35.574999999999989
42
0.4142135623730977
10
-59.387499999999989
20
35.074999999999996
10
-59.387499999999996
20
22.074999999999996
42
0.4142135623730977
0
LWPOLYLINE
5
148
100
AcDbEntity
8
0
100
AcDbPolyline
90
8
70
1
43
0.0
10
-54.125
20
2.5249999999999995
10
-41.125000000000007
20
2.5249999999999972
42
0.41421356237310736
10
-40.625
20
3.0249999999999977
10
-40.624999999999993
20
16.024999999999995
42
0.41421356237310802
10
-41.125000000000007
20
16.524999999999995
10
-54.125
20
16.524999999999995
42
0.4142135623730977
10
-54.624999999999986
20
16.024999999999995
10
-54.624999999999993
20
3.0249999999999977
42
0.41421356237309698
0
LWPOLYLINE
5
149
100
AcDbEntity
8
0
100
AcDbPolyline
90
8
70
1
43
0.0
10
-226.86249999999998
20
73.674999999999997
10
-239.86249999999998
20
73.674999999999997
42
0.41421356237311585
10
-240.36249999999998
20
73.174999999999983
10
-240.36249999999998
20
60.174999999999976
42
0.41421356237312101
10
-239.86249999999998
20
59.674999999999976
10
-226.86249999999998
20
59.674999999999976
42
0.41421356237313667
10
-226.36249999999995
20
60.174999999999983
10
-226.36249999999995
20
73.174999999999983
42
0.41421356237313145
0
LWPOLYLINE
5
150
100
AcDbEntity
8
0
100
AcDbPolyline
90
8
70
1
43
0.0
10
-219.71874999999997
20
16.524999999999995
10
-232.71874999999997
20
16.524999999999991
42
0.41421356237313273
10
-233.21875
20
16.024999999999984
10
-233.21875
20
3.0249999999999866
42
0.41421356237313273
10
-232.71874999999997
20
2.5249999999999795
10
-219.71874999999997
20
2.5249999999999799
42
0.4142135623731012
10
-219.21874999999997
20
3.0249999999999866
10
-219.21874999999997
20
16.024999999999984
42
0.41421356237310153
0
LWPOLYLINE
5
151
100
AcDbEntity
8
0
100
AcDbPolyline
90
8
70
1
43
0.0
10
-222.09999999999997
20
35.574999999999989
10
-235.09999999999997
20
35.574999999999989
42
0.4142135623731002
10
-235.59999999999999
20
35.074999999999989
10
-235.59999999999999
20
22.074999999999989
42
0.41421356237310281
10
-235.09999999999997
20
21.574999999999974
10
-222.09999999999997
20
21.574999999999974
42
0.414213562373134
10
-221.59999999999997
20
22.074999999999982
10
-221.59999999999997
20
35.074999999999989
42
0.41421356237313145
0
LWPOLYLINE
5
152
100
AcDbEntity
8
0
100
AcDbPolyline
90
8
70
1
43
0.0
10
-226.86249999999998
20
54.624999999999993
10
-239.86249999999998
20
54.624999999999993
42
0.41421356237312101
10
-240.36249999999998
20
54.124999999999986
10
-240.36249999999998
20
41.124999999999972
42
0.41421356237312101
10
-239.86249999999998
20
40.624999999999972
10
-226.86249999999998
20
40.624999999999972
42
0.41421356237313145
10
-226.36249999999995
20
41.124999999999979
10
-226.36249999999995
20
54.124999999999986
42
0.41421356237313145
0
LWPOLYLINE
5
153
100
AcDbEntity
8
0
100
AcDbPolyline
90
8
70
1
43
0.0
10
-3.0249999999999844
20
16.524999999999999
10
-16.024999999999991
20
16.524999999999999
42
0.4142135623730937
10
-16.524999999999999
20
16.024999999999999
10
-16.524999999999999
20
3.0249999999999999
42
0.4142135623731022
10
-16.024999999999991
20
2.5249999999999972
10
-3.0249999999999995
20
2.5249999999999995
42
0.41421356237309537
10
-2.5250000000000128
20
3.0249999999999999
10
-2.5249999999999999
20
16.024999999999999
42
0.41421356237308299
0
LWPOLYLINE
5
154
100
AcDbEntity
8
0
100
AcDbPolyline
90
8
70
1
43
0.0
10
-5.4062499999999858
20
35.574999999999996
10
-18.406249999999993
20
35.574999999999996
42
0.41421356237310153
10
-18.90625
20
35.074999999999996
10
-18.90625
20
22.074999999999996
42
0.41421356237310153
10
-18.406249999999993
20
21.574999999999996
10
-5.4062500000000018
20
21.574999999999996
42
0.4142135623730957
10
-4.9062500000000142
20
22.074999999999996
10
-4.9062500000000036
20
35.074999999999996
42
0.41421356237308982
0
LWPOLYLINE
5
155
100
AcDbEntity
8
0
100
AcDbPolyline
90
8
70
1
43
0.0
10
-10.168749999999989
20
54.624999999999993
10
-23.168749999999996
20
54.624999999999993
42
0.4142135623730977
10
-23.668750000000003
20
54.125
10
-23.668749999999999
20
41.124999999999986
42
0.4142135623731002
10
-23.168749999999996
20
40.624999999999993
10
-10.168750000000003
20
40.624999999999993
42
0.4142135623730977
10
-9.6687500000000171
20
41.124999999999986
10
-9.6687500000000011
20
54.125
42
0.41421356237309109
0
LWPOLYLINE
5
156
100
AcDbEntity
8
0
100
AcDbPolyline
90
8
70
1
43
0.0
10
-5.4062500000000213
20
73.674999999999997
10
-18.406249999999993
20
73.674999999999997
42
0.41421356237310414
10
-18.90625
20
73.174999999999983
10
-18.906250000000004
20
60.17499999999999
42
0.41421356237310153
10
-18.406249999999993
20
59.674999999999997
10
-5.4062500000000018
20
59.674999999999997
42
0.41421356237309959
10
-4.9062500000000142
20
60.174999999999997
10
-4.9062500000000053
20
73.174999999999983
42
0.41421356237310802
0
LWPOLYLINE
5
157
100
AcDbEntity
8
0
100
AcDbPolyline
90
8
70
1
43
0.0
10
-39.837500000000006
20
59.674999999999997
10
-26.837499999999999
20
59.674999999999997
42
0.4142135623731002
10
-26.337499999999991
20
60.174999999999997
10
-26.337499999999999
20
73.174999999999983
42
0.4142135623730977
10
-26.837499999999999
20
73.674999999999997
10
-39.837499999999999
20
73.674999999999983
42
0.41421356237311063
10
-40.337500000000013
20
73.174999999999983
10
-40.337499999999991
20
60.17499999999999
42
0.41421356237311063
0
LWPOLYLINE
5
158
100
AcDbEntity
8
0
100
AcDbPolyline
90
8
70
1
43
0.0
10
-39.837500000000006
20
21.574999999999992
10
-26.837499999999999
20
21.574999999999996
42
0.4142135623730977
10
-26.337499999999991
20
22.074999999999996
10
-26.337499999999995
20
35.074999999999996
42
0.4142135623731002
10
-26.837499999999999
20
35.574999999999996
10
-39.837499999999999
20
35.574999999999996
42
0.41421356237309509
10
-40.337500000000013
20
35.074999999999996
10
-40.337499999999991
20
22.074999999999996
42
0.41421356237308204
0
LWPOLYLINE
5
159
100
AcDbEntity
8
0
100
AcDbPolyline
90
8
70
1
43
0.0
10
-35.075000000000003
20
2.5249999999999995
10
-22.074999999999996
20
2.5249999999999995
42
0.41421356237309509
10
-21.574999999999989
20
3.0249999999999977
10
-21.574999999999996
20
16.024999999999995
42
0.41421356237309637
10
-22.074999999999996
20
16.524999999999995
10
-35.074999999999996
20
16.524999999999995
42
0.4142135623730977
10
-35.57500000000001
20
16.024999999999995
10
-35.574999999999996
20
3.0249999999999977
42
0.41421356237309337
0
ENDSEC
0
SECTION
2
OBJECTS
0
DICTIONARY
5
C
100
AcDbDictionary
3
ACAD_GROUP
350
D
3
ACAD_MLINESTYLE
350
17
0
DICTIONARY
5
D
100
AcDbDictionary
0
DICTIONARY
5
1A
330
C
100
AcDbDictionary
0
DICTIONARY
5
17
100
AcDbDictionary
0
ENDSEC
0
EOF
